<?xml version="1.0" standalone="yes"?>

<svg version="1.1" viewBox="0.0 0.0 100.0 100.0" fill="none" stroke="none" stroke-linecap="square" stroke-miterlimit="10" xmlns="http://www.w3.org/2000/svg" xmlns:xlink="http://www.w3.org/1999/xlink"><clipPath id="p.0"><path d="m0 0l100.0 0l0 100.0l-100.0 0l0 -100.0z" clip-rule="nonzero"></path></clipPath><g clip-path="url(#p.0)"><path fill="#000000" fill-opacity="0.0" d="m0 0l100.0 0l0 100.0l-100.0 0z" fill-rule="evenodd"></path><path fill="#000000" fill-opacity="0.0" d="m10.661417 86.22572l13.774906 -65.921265l64.90226 0l-13.77491 65.921265z" fill-rule="evenodd"></path><path stroke="#333333" stroke-width="0.9" stroke-linejoin="round" stroke-linecap="butt" d="m10.661417 86.22572l13.774906 -65.921265l64.90226 0l-13.77491 65.921265z" fill-rule="evenodd"></path><path fill="#000000" fill-opacity="0.0" d="m23.68504 15.217848l52.629925 0l0 72.34646l-52.629925 0z" fill-rule="evenodd"></path><path fill="#333333" d="m41.231915 36.21972l10.796875 0q3.171875 0 5.5 1.015625q2.328125 1.0 3.828125 2.75q1.515625 1.75 2.265625 4.125q0.7499962 2.375 0.7499962 5.109375q0 4.5625 -1.4687462 8.40625q-1.46875 3.84375 -4.09375 6.671875q-2.609375 2.828125 -6.21875 4.421875q-3.59375 1.578125 -7.8125 1.578125l-10.796875 0l7.25 -34.078125zm4.03125 31.875q3.84375 0 6.90625 -1.515625q3.078125 -1.515625 5.203125 -4.046875q2.140625 -2.546875 3.296875 -5.875q1.15625 -3.34375 1.15625 -7.0q0 -2.453125 -0.65625 -4.515625q-0.640625 -2.0625 -1.9375 -3.546875q-1.296875 -1.484375 -3.21875 -2.328125q-1.921875 -0.84375 -4.46875 -0.84375l-8.34375 0l-6.296875 29.671875l8.359375 0z" fill-rule="nonzero"></path><path fill="#000000" fill-opacity="0.0" d="m23.68504 15.217848l52.629925 0l0 72.34646l-52.629925 0z" fill-rule="evenodd"></path><path fill="#333333" d="m41.231915 36.21972l13.34375 0q1.765625 0 3.140625 0.75q1.375 0.734375 2.328125 1.96875q0.953125 1.21875 1.453125 2.78125q0.515625 1.546875 0.515625 3.234375q0 2.25 -0.9375 4.484375q-0.9375 2.234375 -2.53125 4.015625q-1.578125 1.765625 -3.71875 2.875q-2.125 1.109375 -4.484375 1.109375l-11.171875 0l-2.734375 12.859375l-2.453125 0l7.25 -34.078125zm9.5 18.953125q1.828125 0 3.4375 -0.875q1.609375 -0.890625 2.78125 -2.328125q1.171875 -1.453125 1.859375 -3.21875q0.703125 -1.78125 0.703125 -3.5625q0 -1.390625 -0.40625 -2.609375q-0.40625 -1.21875 -1.125 -2.15625q-0.71875 -0.9375 -1.75 -1.46875q-1.03125 -0.53125 -2.28125 -0.53125l-10.75 0l-3.5625 16.75l11.09375 0z" fill-rule="nonzero"></path></g></svg>
