<?xml version="1.0" standalone="no"?>
<!DOCTYPE svg PUBLIC "-//W3C//DTD SVG 20010904//EN"
 "http://www.w3.org/TR/2001/REC-SVG-20010904/DTD/svg10.dtd">
<svg version="1.0" xmlns="http://www.w3.org/2000/svg"
 width="270.000000pt" height="270.000000pt" viewBox="0 0 270.000000 270.000000"
 preserveAspectRatio="xMidYMid meet">
<metadata>
Created by potrace 1.11, written by Peter Selinger 2001-2013
</metadata>
<g transform="translate(0.000000,270.000000) scale(0.100000,-0.100000)"
fill="#000000" stroke="none">
<path d="M0 1350 l0 -1350 1350 0 1350 0 0 1350 0 1350 -1350 0 -1350 0 0
-1350z m1593 665 c208 -37 334 -155 384 -360 24 -98 23 -326 -1 -414 -52 -191
-178 -322 -345 -361 -78 -18 -251 -8 -321 19 -30 11 -58 21 -62 21 -5 0 -8
-92 -8 -205 l0 -205 -160 0 -161 0 3 653 c3 722 -1 677 70 743 41 40 74 56
163 83 135 41 300 51 438 26z"/>
<path d="M1323 1750 c-18 -4 -44 -15 -58 -24 l-25 -16 0 -271 0 -270 38 -17
c26 -12 65 -17 137 -17 85 0 106 3 142 23 82 43 116 127 116 287 0 227 -75
317 -260 314 -32 -1 -73 -4 -90 -9z"/>
</g>
</svg>
